<svg version="1.1" id="Layer_1" xmlns="http://www.w3.org/2000/svg" xmlns:xlink="http://www.w3.org/1999/xlink" x="0px" y="0px"
	 width="100%" viewBox="0 0 500 500" enable-background="new 0 0 500 500" xml:space="preserve">
<path fill="#000000" opacity="1.000000" stroke="none" 
	d="
M230.000000,501.000000 
	C153.333359,501.000000 77.166702,501.000000 1.000041,501.000000 
	C1.000027,334.333405 1.000027,167.666779 1.000014,1.000130 
	C167.666565,1.000087 334.333130,1.000087 500.999756,1.000043 
	C500.999847,167.666519 500.999847,334.333038 500.999939,500.999786 
	C410.833344,501.000000 320.666656,501.000000 230.000000,501.000000 
M337.723267,328.173370 
	C339.598297,325.514679 341.240143,322.648834 343.387329,320.231934 
	C354.811523,307.372498 360.797791,291.805145 364.473602,275.494537 
	C368.139435,259.228119 368.357452,242.510208 364.484039,226.203552 
	C356.245453,191.520309 336.359955,165.410599 304.963837,148.339417 
	C293.305725,142.000488 280.707550,138.834061 267.567810,136.624405 
	C248.999054,133.501770 231.086227,135.229279 213.616806,141.237076 
	C186.701370,150.493408 165.820770,167.555222 150.910416,191.910400 
	C143.496246,204.021011 138.649384,217.331360 136.455322,231.014633 
	C134.569748,242.773834 135.513596,255.133011 136.348465,267.147491 
	C137.563629,284.634552 144.474457,300.478760 153.903000,314.945648 
	C164.135452,330.645966 177.571915,343.447083 194.317932,352.147797 
	C202.933929,356.624420 211.976837,360.528046 221.207550,363.513489 
	C234.419296,367.786530 248.333282,367.479462 261.958282,366.435913 
	C271.041077,365.740265 280.306305,363.851807 288.877563,360.785492 
	C307.515259,354.117920 323.892090,343.549164 337.723267,328.173370 
z"/>
<path fill="#FFF6F6" opacity="1.000000" stroke="none" 
	d="
M337.522217,328.467987 
	C323.892090,343.549164 307.515259,354.117920 288.877563,360.785492 
	C280.306305,363.851807 271.041077,365.740265 261.958282,366.435913 
	C248.333282,367.479462 234.419296,367.786530 221.207550,363.513489 
	C211.976837,360.528046 202.933929,356.624420 194.317932,352.147797 
	C177.571915,343.447083 164.135452,330.645966 153.903000,314.945648 
	C144.474457,300.478760 137.563629,284.634552 136.348465,267.147491 
	C135.513596,255.133011 134.569748,242.773834 136.455322,231.014633 
	C138.649384,217.331360 143.496246,204.021011 150.910416,191.910400 
	C165.820770,167.555222 186.701370,150.493408 213.616806,141.237076 
	C231.086227,135.229279 248.999054,133.501770 267.567810,136.624405 
	C280.707550,138.834061 293.305725,142.000488 304.963837,148.339417 
	C336.359955,165.410599 356.245453,191.520309 364.484039,226.203552 
	C368.357452,242.510208 368.139435,259.228119 364.473602,275.494537 
	C360.797791,291.805145 354.811523,307.372498 343.387329,320.231934 
	C341.240143,322.648834 339.598297,325.514679 337.522217,328.467987 
M283.033356,155.494446 
	C268.594360,150.661728 253.840103,149.871918 238.838379,151.951630 
	C212.760681,155.566818 191.178421,167.720520 174.849792,188.014954 
	C156.724701,210.542160 150.136871,236.952255 154.221802,265.487427 
	C158.688538,296.689758 175.732452,320.238770 202.007111,336.804596 
	C221.954758,349.381317 244.384857,352.835541 267.553467,349.779694 
	C289.117035,346.935547 307.793396,337.277893 323.247070,322.107574 
	C343.126465,302.592773 353.022766,278.658936 353.046265,250.659653 
	C353.062622,231.208893 348.236084,213.073929 337.377045,197.054779 
	C331.662537,188.624771 324.657623,180.809845 317.120544,173.940414 
	C307.641449,165.301056 296.414581,159.043808 283.033356,155.494446 
z"/>
<path fill="#FEE0E0" opacity="1.000000" stroke="none" 
	d="
M283.407104,155.638855 
	C296.414581,159.043808 307.641449,165.301056 317.120544,173.940414 
	C324.657623,180.809845 331.662537,188.624771 337.377045,197.054779 
	C348.236084,213.073929 353.062622,231.208893 353.046265,250.659653 
	C353.022766,278.658936 343.126465,302.592773 323.247070,322.107574 
	C307.793396,337.277893 289.117035,346.935547 267.553467,349.779694 
	C244.384857,352.835541 221.954758,349.381317 202.007111,336.804596 
	C175.732452,320.238770 158.688538,296.689758 154.221802,265.487427 
	C150.136871,236.952255 156.724701,210.542160 174.849792,188.014954 
	C191.178421,167.720520 212.760681,155.566818 238.838379,151.951630 
	C253.840103,149.871918 268.594360,150.661728 283.407104,155.638855 
M221.140442,291.722290 
	C223.129425,295.475952 225.118393,299.229645 227.080017,303.643280 
	C227.083481,304.083557 227.086945,304.523865 227.110855,305.501740 
	C227.420441,305.632446 227.730011,305.763153 228.970657,305.942200 
	C241.957367,305.937592 254.947647,305.762604 267.928558,306.034454 
	C271.716858,306.113770 272.979218,304.620575 274.122375,301.349274 
	C285.646179,268.372223 297.347351,235.457199 308.978699,202.517670 
	C310.456879,198.331528 311.820496,194.104935 313.499237,189.118668 
	C299.860931,190.277100 287.009918,191.453568 274.142365,192.406281 
	C270.601471,192.668442 269.050049,194.410095 267.862305,197.570862 
	C260.374756,217.496552 252.701599,237.352478 244.481323,256.823212 
	C241.141769,250.419281 237.802216,244.015350 234.334366,236.877274 
	C231.381622,227.975510 231.381546,227.965927 222.371109,228.033386 
	C214.729431,228.090607 207.088013,228.181427 199.446350,228.240967 
	C196.379272,228.264862 193.311859,228.244888 189.118088,228.244888 
	C200.136444,249.968094 210.550125,270.499115 221.140442,291.722290 
z"/>
<path fill="#FE5C5C" opacity="1.000000" stroke="none" 
	d="
M227.090393,304.964142 
	C227.086945,304.523865 227.083481,304.083557 227.359772,303.099457 
	C233.456284,287.447571 239.273026,272.339508 245.089752,257.231445 
	C252.701599,237.352478 260.374756,217.496552 267.862305,197.570862 
	C269.050049,194.410095 270.601471,192.668442 274.142365,192.406281 
	C287.009918,191.453568 299.860931,190.277100 313.499237,189.118668 
	C311.820496,194.104935 310.456879,198.331528 308.978699,202.517670 
	C297.347351,235.457199 285.646179,268.372223 274.122375,301.349274 
	C272.979218,304.620575 271.716858,306.113770 267.928558,306.034454 
	C254.947647,305.762604 241.957367,305.937592 228.386169,305.726196 
	C227.609848,305.269226 227.372757,305.087219 227.090393,304.964142 
z"/>
<path fill="#FE5D5D" opacity="1.000000" stroke="none" 
	d="
M220.963791,291.030151 
	C210.550125,270.499115 200.136444,249.968094 189.118088,228.244888 
	C193.311859,228.244888 196.379272,228.264862 199.446350,228.240967 
	C207.088013,228.181427 214.729431,228.090607 222.371109,228.033386 
	C231.381546,227.965927 231.381622,227.975510 234.239960,237.663345 
	C230.763428,254.285660 227.441666,270.135376 223.917175,285.939880 
	C223.510071,287.765381 221.975586,289.339478 220.963791,291.030151 
z"/>
<path fill="#FE8B8B" opacity="1.000000" stroke="none" 
	d="
M221.052124,291.376221 
	C221.975586,289.339478 223.510071,287.765381 223.917175,285.939880 
	C227.441666,270.135376 230.763428,254.285660 234.304123,238.030426 
	C237.802216,244.015350 241.141769,250.419281 244.785553,257.027344 
	C239.273026,272.339508 233.456284,287.447571 227.373444,302.769470 
	C225.118393,299.229645 223.129425,295.475952 221.052124,291.376221 
z"/>
<path fill="#FE8B8B" opacity="1.000000" stroke="none" 
	d="
M227.100616,305.232941 
	C227.372757,305.087219 227.609848,305.269226 227.920624,305.702026 
	C227.730011,305.763153 227.420441,305.632446 227.100616,305.232941 
z"/>
</svg>